<svg width="16" height="16" viewBox="0 0 16 16" fill="none" xmlns="http://www.w3.org/2000/svg">
  <path d="M8 2C11.3137 2 14 4.68629 14 8C14 11.3137 11.3137 14 8 14C4.68629 14 2 11.3137 2 8C2 4.68629 4.68629 2 8 2Z" fill="#4285F4"/>
  <path d="M14 8H8V10H12C11.5 11.5 10 12.5 8 12.5C6 12.5 4.5 11 4.5 8.5C4.5 6 6 4.5 8 4.5C9 4.5 9.5 5 10 5.5L11.5 4C10.5 3 9.5 2.5 8 2.5C5.5 2.5 3.5 4.5 3.5 7C3.5 9.5 5.5 11.5 8 11.5C10.5 11.5 12.5 9.5 12.5 7V6.5H8V8Z" fill="#34A853"/>
  <path d="M8 2V4.5C9 4.5 9.5 5 10 5.5L11.5 4C10.5 3 9.5 2.5 8 2.5Z" fill="#FBBC05"/>
  <path d="M8 11.5C5.5 11.5 3.5 9.5 3.5 7C3.5 6 4 5 4.5 4.5L3 3C2 4 1.5 5.5 1.5 7C1.5 10.5 4.5 13.5 8 13.5V11.5Z" fill="#EA4335"/>
</svg> 